HIERARCHY
ROOT Hips
{
	OFFSET 0.000000 0.000000 0.000000
	CHANNELS 6 Xposition Yposition Zposition Zrotation Yrotation Xrotation 
	JOINT Spine1
	{
		OFFSET -0.013727 5.003763 -0.053727
		CHANNELS 3 Zrotation Yrotation Xrotation
		JOINT Spine2
		{
			OFFSET -0.000000 7.125302 -0.029825
			CHANNELS 3 Zrotation Yrotation Xrotation
			JOINT Chest
			{
				OFFSET -0.000001 7.550063 -0.815971
				CHANNELS 3 Zrotation Yrotation Xrotation
				JOINT Neck1
				{
					OFFSET -0.181676 26.311296 -0.553348
					CHANNELS 3 Zrotation Yrotation Xrotation
					JOINT Neck2
					{
						OFFSET -0.000003 7.709399 2.302586
						CHANNELS 3 Zrotation Yrotation Xrotation
						JOINT Head
						{
							OFFSET -0.000005 6.128915 1.953708
							CHANNELS 3 Zrotation Yrotation Xrotation
							JOINT HeadEnd
							{
								OFFSET 0.003598 16.065401 -1.835379
								CHANNELS 3 Zrotation Yrotation Xrotation
								End Site
								{
									OFFSET 0.000000 0.000000 0.000000
								}
							}
							JOINT Jaw
							{
								OFFSET 0.002637 0.475590 3.094941
								CHANNELS 3 Zrotation Yrotation Xrotation
								End Site
								{
									OFFSET 0.000000 0.000000 0.000000
								}
							}
							JOINT LeftEye
							{
								OFFSET 3.206381 5.380207 7.586884
								CHANNELS 3 Zrotation Yrotation Xrotation
								End Site
								{
									OFFSET 0.000000 0.000000 0.000000
								}
							}
							JOINT RightEye
							{
								OFFSET -3.222440 5.361866 7.558233
								CHANNELS 3 Zrotation Yrotation Xrotation
								End Site
								{
									OFFSET 0.000000 0.000000 0.000000
								}
							}
						}
					}
				}
				JOINT LeftShoulder
				{
					OFFSET 1.621652 23.237164 5.113413
					CHANNELS 3 Zrotation Yrotation Xrotation
					JOINT LeftArm
					{
						OFFSET 14.919845 -0.000001 -5.502326
						CHANNELS 3 Zrotation Yrotation Xrotation
						JOINT LeftForeArm
						{
							OFFSET 28.739309 0.000003 -0.002588
							CHANNELS 3 Zrotation Yrotation Xrotation
							JOINT LeftHand
							{
								OFFSET 27.093983 -0.000003 0.002610
								CHANNELS 3 Zrotation Yrotation Xrotation
								JOINT LeftHandThumb1
								{
									OFFSET 2.276481 -1.392045 3.191413
									CHANNELS 3 Zrotation Yrotation Xrotation
									JOINT LeftHandThumb2
									{
										OFFSET 4.012841 -1.828126 1.641655
										CHANNELS 3 Zrotation Yrotation Xrotation
										JOINT LeftHandThumb3
										{
											OFFSET 2.798517 0.000001 -0.000003
											CHANNELS 3 Zrotation Yrotation Xrotation
											JOINT LeftHandThumbEnd
											{
												OFFSET 3.180790 -0.000002 0.000003
												CHANNELS 3 Zrotation Yrotation Xrotation
												End Site
												{
													OFFSET 0.000000 0.000000 0.000000
												}
											}
										}
									}
								}
								JOINT LeftHandIndex1
								{
									OFFSET 3.247552 -0.531998 2.296169
									CHANNELS 3 Zrotation Yrotation Xrotation
									JOINT LeftHandIndex2
									{
										OFFSET 6.364580 0.012062 0.178600
										CHANNELS 3 Zrotation Yrotation Xrotation
										JOINT LeftHandIndex3
										{
											OFFSET 3.662366 0.000001 -0.000000
											CHANNELS 3 Zrotation Yrotation Xrotation
											JOINT LeftHandIndex4
											{
												OFFSET 2.329242 0.000003 0.000003
												CHANNELS 3 Zrotation Yrotation Xrotation
												JOINT LeftHandIndexEnd
												{
													OFFSET 2.759619 -0.180539 -0.113024
													CHANNELS 3 Zrotation Yrotation Xrotation
													End Site
													{
														OFFSET 0.000000 0.000000 0.000000
													}
												}
											}
										}
									}
								}
								JOINT LeftHandMiddle1
								{
									OFFSET 3.163499 0.240982 1.000332
									CHANNELS 3 Zrotation Yrotation Xrotation
									JOINT LeftHandMiddle2
									{
										OFFSET 6.190778 -0.259276 -1.002549
										CHANNELS 3 Zrotation Yrotation Xrotation
										JOINT LeftHandMiddle3
										{
											OFFSET 4.356523 -0.000006 0.000000
											CHANNELS 3 Zrotation Yrotation Xrotation
											JOINT LeftHandMiddle4
											{
												OFFSET 2.996875 -0.000007 0.000001
												CHANNELS 3 Zrotation Yrotation Xrotation
												JOINT LeftHandMiddleEnd
												{
													OFFSET 2.304294 -0.294572 -0.031740
													CHANNELS 3 Zrotation Yrotation Xrotation
													End Site
													{
														OFFSET 0.000000 0.000000 0.000000
													}
												}
											}
										}
									}
								}
								JOINT LeftHandRing1
								{
									OFFSET 2.882642 -0.053650 -0.322543
									CHANNELS 3 Zrotation Yrotation Xrotation
									JOINT LeftHandRing2
									{
										OFFSET 5.854542 -0.486203 -1.373841
										CHANNELS 3 Zrotation Yrotation Xrotation
										JOINT LeftHandRing3
										{
											OFFSET 4.350581 0.000000 0.000003
											CHANNELS 3 Zrotation Yrotation Xrotation
											JOINT LeftHandRing4
											{
												OFFSET 2.651324 0.000006 0.000004
												CHANNELS 3 Zrotation Yrotation Xrotation
												JOINT LeftHandRingEnd
												{
													OFFSET 1.936111 0.077685 -0.000069
													CHANNELS 3 Zrotation Yrotation Xrotation
													End Site
													{
														OFFSET 0.000000 0.000000 0.000000
													}
												}
											}
										}
									}
								}
								JOINT LeftHandPinky1
								{
									OFFSET 2.865499 -0.310004 -1.600378
									CHANNELS 3 Zrotation Yrotation Xrotation
									JOINT LeftHandPinky2
									{
										OFFSET 5.087853 -1.331142 -1.771231
										CHANNELS 3 Zrotation Yrotation Xrotation
										JOINT LeftHandPinky3
										{
											OFFSET 3.070975 0.000003 0.000001
											CHANNELS 3 Zrotation Yrotation Xrotation
											JOINT LeftHandPinky4
											{
												OFFSET 1.549667 -0.000000 0.000001
												CHANNELS 3 Zrotation Yrotation Xrotation
												JOINT LeftHandPinkyEnd
												{
													OFFSET 1.944894 -0.157802 0.057219
													CHANNELS 3 Zrotation Yrotation Xrotation
													End Site
													{
														OFFSET 0.000000 0.000000 0.000000
													}
												}
											}
										}
									}
								}
							}
						}
					}
				}
				JOINT RightShoulder
				{
					OFFSET -1.380118 23.180305 5.214158
					CHANNELS 3 Zrotation Yrotation Xrotation
					JOINT RightArm
					{
						OFFSET -15.037197 0.000013 -5.545605
						CHANNELS 3 Zrotation Yrotation Xrotation
						JOINT RightForeArm
						{
							OFFSET -28.736643 0.000003 -0.002597
							CHANNELS 3 Zrotation Yrotation Xrotation
							JOINT RightHand
							{
								OFFSET -27.133619 -0.000000 0.002612
								CHANNELS 3 Zrotation Yrotation Xrotation
								JOINT RightHandThumb1
								{
									OFFSET -2.274038 -1.383990 3.163128
									CHANNELS 3 Zrotation Yrotation Xrotation
									JOINT RightHandThumb2
									{
										OFFSET -4.011428 -1.827468 1.640914
										CHANNELS 3 Zrotation Yrotation Xrotation
										JOINT RightHandThumb3
										{
											OFFSET -2.794935 -0.000003 -0.000003
											CHANNELS 3 Zrotation Yrotation Xrotation
											JOINT RightHandThumbEnd
											{
												OFFSET -3.183856 0.000004 -0.000000
												CHANNELS 3 Zrotation Yrotation Xrotation
												End Site
												{
													OFFSET 0.000000 0.000000 0.000000
												}
											}
										}
									}
								}
								JOINT RightHandIndex1
								{
									OFFSET -3.253271 -0.520059 2.282866
									CHANNELS 3 Zrotation Yrotation Xrotation
									JOINT RightHandIndex2
									{
										OFFSET -6.341918 0.012473 0.178265
										CHANNELS 3 Zrotation Yrotation Xrotation
										JOINT RightHandIndex3
										{
											OFFSET -3.654875 -0.000009 -0.000000
											CHANNELS 3 Zrotation Yrotation Xrotation
											JOINT RightHandIndex4
											{
												OFFSET -2.327586 0.000000 0.000000
												CHANNELS 3 Zrotation Yrotation Xrotation
												JOINT RightHandIndexEnd
												{
													OFFSET -2.761789 -0.180657 -0.113078
													CHANNELS 3 Zrotation Yrotation Xrotation
													End Site
													{
														OFFSET 0.000000 0.000000 0.000000
													}
												}
											}
										}
									}
								}
								JOINT RightHandMiddle1
								{
									OFFSET -3.168107 0.246594 1.001031
									CHANNELS 3 Zrotation Yrotation Xrotation
									JOINT RightHandMiddle2
									{
										OFFSET -6.180829 -0.258836 -1.000896
										CHANNELS 3 Zrotation Yrotation Xrotation
										JOINT RightHandMiddle3
										{
											OFFSET -4.348906 -0.000000 -0.000001
											CHANNELS 3 Zrotation Yrotation Xrotation
											JOINT RightHandMiddle4
											{
												OFFSET -3.000244 -0.000004 -0.000002
												CHANNELS 3 Zrotation Yrotation Xrotation
												JOINT RightHandMiddleEnd
												{
													OFFSET -2.302518 -0.294371 -0.031706
													CHANNELS 3 Zrotation Yrotation Xrotation
													End Site
													{
														OFFSET 0.000000 0.000000 0.000000
													}
												}
											}
										}
									}
								}
								JOINT RightHandRing1
								{
									OFFSET -2.885694 -0.067952 -0.308858
									CHANNELS 3 Zrotation Yrotation Xrotation
									JOINT RightHandRing2
									{
										OFFSET -5.854198 -0.486132 -1.373732
										CHANNELS 3 Zrotation Yrotation Xrotation
										JOINT RightHandRing3
										{
											OFFSET -4.338814 -0.000004 -0.000000
											CHANNELS 3 Zrotation Yrotation Xrotation
											JOINT RightHandRing4
											{
												OFFSET -2.654905 -0.000004 0.000004
												CHANNELS 3 Zrotation Yrotation Xrotation
												JOINT RightHandRingEnd
												{
													OFFSET -1.933571 0.077525 -0.000053
													CHANNELS 3 Zrotation Yrotation Xrotation
													End Site
													{
														OFFSET 0.000000 0.000000 0.000000
													}
												}
											}
										}
									}
								}
								JOINT RightHandPinky1
								{
									OFFSET -2.866430 -0.342798 -1.584145
									CHANNELS 3 Zrotation Yrotation Xrotation
									JOINT RightHandPinky2
									{
										OFFSET -5.091370 -1.332054 -1.772385
										CHANNELS 3 Zrotation Yrotation Xrotation
										JOINT RightHandPinky3
										{
											OFFSET -3.062666 -0.000006 0.000000
											CHANNELS 3 Zrotation Yrotation Xrotation
											JOINT RightHandPinky4
											{
												OFFSET -1.546527 0.000005 -0.000002
												CHANNELS 3 Zrotation Yrotation Xrotation
												JOINT RightHandPinkyEnd
												{
													OFFSET -1.945122 -0.157721 0.057211
													CHANNELS 3 Zrotation Yrotation Xrotation
													End Site
													{
														OFFSET 0.000000 0.000000 0.000000
													}
												}
											}
										}
									}
								}
							}
						}
					}
				}
			}
		}
	}
	JOINT LeftLeg
	{
		OFFSET 10.043214 -8.434526 2.595655
		CHANNELS 3 Zrotation Yrotation Xrotation
		JOINT LeftShin
		{
			OFFSET -0.000001 -43.221752 -0.802913
			CHANNELS 3 Zrotation Yrotation Xrotation
			JOINT LeftFoot
			{
				OFFSET 0.000001 -42.155094 -3.481523
				CHANNELS 3 Zrotation Yrotation Xrotation
				JOINT LeftToeBase
				{
					OFFSET -0.000000 -5.059475 13.231529
					CHANNELS 3 Zrotation Yrotation Xrotation
					JOINT LeftToeEnd
					{
						OFFSET -0.009607 -1.647615 6.513017
						CHANNELS 3 Zrotation Yrotation Xrotation
						End Site
						{
							OFFSET 0.000000 0.000000 0.000000
						}
					}
				}
			}
		}
	}
	JOINT RightLeg
	{
		OFFSET -10.047277 -8.295260 2.620317
		CHANNELS 3 Zrotation Yrotation Xrotation
		JOINT RightShin
		{
			OFFSET 0.000000 -43.362209 -0.805556
			CHANNELS 3 Zrotation Yrotation Xrotation
			JOINT RightFoot
			{
				OFFSET 0.000002 -42.117393 -3.478399
				CHANNELS 3 Zrotation Yrotation Xrotation
				JOINT RightToeBase
				{
					OFFSET -0.000001 -5.079609 13.284196
					CHANNELS 3 Zrotation Yrotation Xrotation
					JOINT RightToeEnd
					{
						OFFSET 0.009532 -1.634383 6.460591
						CHANNELS 3 Zrotation Yrotation Xrotation
						End Site
						{
							OFFSET 0.000000 0.000000 0.000000
						}
					}
				}
			}
		}
	}
}
MOTION
Frames: 5
Frame Time: 0.033333
0.242690 96.364090 -0.686262 -1.039677 0.117370 1.328082 1.241513 0.600565 2.425634 -0.393627 0.665711 -4.435995 1.069110 -1.366543 13.343907 -5.707706 7.195954 22.969395 0.962307 6.522910 -3.600641 -3.627262 6.427270 -1.688920 0.000077 -0.000021 0.000006 0.023016 -0.049885 -0.117904 0.749544 -3.777410 -10.619747 -0.715964 3.675557 -10.607303 22.703274 -17.333706 3.239628 -81.257111 -35.775818 -29.418505 178.678146 -34.701042 -179.572159 -3.077452 -11.608521 -10.407917 -5.882102 9.861278 0.702590 -10.936860 -0.360574 7.156196 0.000003 8.774812 -0.000001 -16.600391 17.807949 6.092919 -1.844032 2.498502 -2.507275 -10.163589 4.678940 4.621104 -20.975992 -0.000003 0.000001 -21.226255 2.451693 -3.593995 0.000001 -0.000006 -0.000000 -1.362683 2.240796 -0.746323 -21.334894 0.584910 3.008320 -13.821193 -0.000002 0.000002 -23.887129 -0.249078 -0.839482 -61.471329 2.309890 -1.490672 -0.294025 1.679686 0.833255 -14.218190 0.093215 1.300579 -34.211998 -0.287562 0.967168 -20.033176 0.964535 1.212840 -0.000000 -0.000000 -0.000000 -3.440386 0.788233 0.501656 -15.928167 -3.167305 2.999703 -6.338817 -0.000001 0.000001 -18.123415 3.648177 -4.905661 -0.000004 0.000000 -0.000002 -23.615210 25.095095 0.957162 91.721878 42.230000 5.752028 -179.356415 38.608013 -179.488571 -10.154332 9.300632 -15.922845 2.243540 -5.255033 -3.180155 14.282877 -0.826595 6.952493 -0.000001 -12.690592 -0.000001 16.570202 -18.296797 3.088874 1.665666 -1.955920 -2.878296 4.727794 -4.170584 4.993920 11.020511 0.000003 -0.000001 12.109034 -3.735710 -2.866781 0.000001 0.000000 0.000000 1.291984 -1.928548 -1.498087 14.800113 0.567466 3.865602 14.242553 -1.341734 -6.660649 19.631939 0.143925 -0.648245 50.988098 -0.910136 -5.975976 0.353029 -1.511149 -0.031939 20.222771 3.684304 2.316626 18.787247 0.000004 -0.000001 10.751611 -0.479868 1.397902 0.000001 0.000002 -0.000001 3.273804 0.305947 -0.580111 21.486792 11.830361 2.266129 8.162917 0.000003 -0.000003 18.399054 -3.798979 -4.940570 0.000003 -0.000001 -0.000002 17.050032 16.496916 -18.476942 -0.286481 -0.856679 21.551498 -18.278982 -10.016517 5.471424 1.645747 -1.875443 -1.344704 0.000000 -0.000000 0.000002 -11.658070 -17.147320 -2.021242 0.101704 0.701811 24.313379 14.298497 9.055120 -13.111166 -1.442691 0.908132 -2.664778 0.000000 -0.000000 -0.000001 
0.309522 96.363838 -0.696052 -1.060589 -0.063206 1.364269 1.288089 0.572175 2.491696 -0.346011 0.651744 -4.433396 1.110932 -1.307303 13.393838 -5.811636 7.231712 22.886713 0.924629 6.567749 -3.570164 -3.824074 6.592914 -1.715019 0.000076 -0.000021 0.000007 0.026975 -0.041645 -0.117441 0.745593 -3.773652 -10.622791 -0.702333 3.690695 -10.608518 22.875166 -17.385668 3.089388 -81.555260 -35.535374 -29.537609 178.611084 -34.554390 -179.569534 -3.160738 -11.676036 -10.899334 -5.882099 9.861278 0.702590 -10.936858 -0.360574 7.156197 0.000002 8.774811 -0.000000 -16.586063 17.829397 6.120853 -1.844031 2.498502 -2.507275 -10.163589 4.678939 4.621104 -20.975996 -0.000005 0.000001 -21.226254 2.451691 -3.593994 0.000000 -0.000006 -0.000001 -1.362681 2.240796 -0.746323 -21.334887 0.584907 3.008319 -13.821197 -0.000004 0.000001 -23.887129 -0.249080 -0.839482 -61.536922 2.227380 -1.477176 -0.294024 1.679686 0.833255 -14.218194 0.093214 1.300579 -34.211998 -0.287566 0.967169 -20.033176 0.964534 1.212842 -0.000000 0.000000 0.000000 -3.440385 0.788232 0.501655 -15.928165 -3.167306 2.999703 -6.338818 -0.000001 0.000001 -18.123411 3.648175 -4.905661 -0.000004 0.000000 -0.000002 -23.835497 25.290743 1.009696 91.839256 42.312927 5.705968 -179.491302 38.499317 -179.559113 -10.143801 9.375041 -16.182539 2.243539 -5.255032 -3.180155 14.282877 -0.826593 6.952496 -0.000002 -12.690592 0.000000 16.472538 -18.222626 3.075597 1.665665 -1.955920 -2.878300 4.727794 -4.170583 4.993921 11.020513 0.000003 -0.000001 12.109032 -3.735709 -2.866781 0.000000 0.000000 -0.000001 1.291985 -1.928548 -1.498090 14.800111 0.567469 3.865603 14.242551 -1.341732 -6.660648 19.631941 0.143926 -0.648243 50.906609 -0.929077 -5.938890 0.353029 -1.511149 -0.031939 20.222771 3.684306 2.316627 18.787247 0.000006 0.000002 10.751610 -0.479867 1.397904 -0.000000 0.000002 -0.000001 3.273804 0.305947 -0.580109 21.486792 11.830362 2.266130 8.162916 0.000002 -0.000002 18.399054 -3.798979 -4.940567 0.000002 -0.000002 -0.000002 17.067299 16.408327 -18.558161 -0.280363 -0.835285 21.789507 -18.171511 -9.814846 5.318990 1.648112 -1.916900 -1.344254 0.000000 -0.000000 0.000002 -11.704585 -17.206238 -2.042520 0.096374 0.667650 24.159225 14.409950 9.360737 -13.029538 -1.444225 0.888737 -2.755849 0.000000 -0.000000 -0.000001 
0.342809 96.331459 -0.741897 -1.080371 -0.141184 1.407421 1.342049 0.551113 2.523805 -0.321934 0.685906 -4.425320 1.153974 -1.302795 13.441519 -5.912951 7.260552 22.831762 0.919228 6.552522 -3.563954 -3.990458 6.753300 -1.721078 0.000076 -0.000021 0.000006 0.026184 -0.041801 -0.112301 0.742675 -3.782264 -10.623375 -0.684821 3.680827 -10.598486 23.044825 -17.473684 2.987490 -81.764412 -35.350433 -29.740637 178.585693 -34.457470 -179.609406 -3.217445 -11.768511 -11.196272 -5.882102 9.861278 0.702589 -10.936858 -0.360575 7.156196 0.000001 8.774812 -0.000002 -16.534464 17.828266 6.133615 -1.844030 2.498503 -2.507276 -10.163591 4.678940 4.621103 -20.975992 -0.000004 0.000002 -21.226254 2.451692 -3.593993 0.000001 -0.000006 -0.000000 -1.362681 2.240796 -0.746323 -21.334890 0.584907 3.008319 -13.821193 -0.000003 0.000002 -23.887131 -0.249079 -0.839481 -61.627918 2.223875 -1.481821 -0.294025 1.679687 0.833255 -14.218194 0.093214 1.300578 -34.212006 -0.287566 0.967170 -20.033180 0.964534 1.212842 -0.000000 0.000000 -0.000000 -3.440387 0.788233 0.501655 -15.928169 -3.167308 2.999703 -6.338817 -0.000002 0.000001 -18.123413 3.648175 -4.905663 -0.000004 0.000000 -0.000002 -24.003731 25.396599 1.015439 91.907661 42.414139 5.618400 -179.629150 38.496822 -179.604767 -10.164779 9.515729 -16.646444 2.243540 -5.255032 -3.180156 14.282877 -0.826593 6.952494 -0.000001 -12.690591 -0.000002 16.358011 -18.148457 3.071745 1.665665 -1.955920 -2.878296 4.727792 -4.170582 4.993915 11.020513 0.000002 -0.000002 12.109032 -3.735710 -2.866782 0.000001 0.000000 0.000000 1.291985 -1.928547 -1.498088 14.800114 0.567468 3.865602 14.242554 -1.341736 -6.660647 19.631939 0.143924 -0.648243 50.930477 -0.969702 -5.938582 0.353029 -1.511149 -0.031941 20.222771 3.684307 2.316626 18.787245 0.000006 0.000000 10.751610 -0.479869 1.397905 -0.000001 0.000001 -0.000002 3.273804 0.305947 -0.580110 21.486792 11.830361 2.266130 8.162916 0.000003 -0.000001 18.399052 -3.798979 -4.940569 0.000003 0.000000 -0.000002 17.064861 16.409369 -18.681606 -0.271058 -0.817207 21.946156 -18.115696 -9.710310 5.160014 1.649498 -1.927895 -1.313520 0.000000 -0.000000 0.000002 -11.721506 -17.309786 -2.125069 0.108325 0.649400 24.132221 14.412373 9.609994 -13.122787 -1.446603 0.875844 -2.758896 0.000000 0.000000 -0.000001 
0.324741 96.317970 -0.818536 -1.104315 -0.196850 1.459136 1.394019 0.576885 2.555785 -0.303168 0.697575 -4.410856 1.206497 -1.312450 13.467184 -6.016484 7.267924 22.814104 0.921519 6.523047 -3.557868 -4.139205 6.886575 -1.708066 0.000077 -0.000021 0.000006 0.030087 -0.041415 -0.113419 0.736260 -3.768815 -10.600209 -0.677149 3.675636 -10.588608 23.173239 -17.560209 2.904417 -81.964172 -35.142502 -29.957672 178.639954 -34.369373 -179.673920 -3.208222 -11.873506 -11.297764 -5.882099 9.861278 0.702590 -10.936858 -0.360575 7.156196 0.000002 8.774812 -0.000001 -16.479338 17.802021 6.155672 -1.844032 2.498502 -2.507276 -10.163589 4.678938 4.621104 -20.975998 -0.000004 0.000001 -21.226254 2.451690 -3.593993 0.000001 -0.000006 -0.000000 -1.362680 2.240796 -0.746323 -21.334887 0.584908 3.008319 -13.821197 -0.000003 0.000001 -23.887135 -0.249080 -0.839482 -61.619785 2.258587 -1.472669 -0.294023 1.679686 0.833255 -14.218192 0.093214 1.300578 -34.211998 -0.287566 0.967169 -20.033180 0.964533 1.212841 -0.000000 0.000000 0.000000 -3.440384 0.788232 0.501655 -15.928167 -3.167306 2.999703 -6.338813 -0.000001 0.000001 -18.123413 3.648175 -4.905662 -0.000003 0.000000 -0.000002 -24.154739 25.466829 0.991401 91.991333 42.514385 5.462709 -179.834732 38.541286 -179.724457 -10.215955 9.649253 -17.178228 2.243539 -5.255033 -3.180155 14.282875 -0.826594 6.952496 -0.000000 -12.690591 -0.000001 16.248320 -18.087406 3.093915 1.665665 -1.955920 -2.878297 4.727793 -4.170584 4.993918 11.020510 0.000002 0.000001 12.109029 -3.735709 -2.866781 0.000001 -0.000001 0.000001 1.291984 -1.928548 -1.498088 14.800113 0.567468 3.865602 14.242554 -1.341735 -6.660648 19.631939 0.143925 -0.648243 50.998177 -0.978677 -5.947268 0.353029 -1.511149 -0.031940 20.222769 3.684306 2.316629 18.787245 0.000005 0.000001 10.751610 -0.479870 1.397903 0.000001 0.000002 -0.000001 3.273804 0.305947 -0.580109 21.486788 11.830362 2.266132 8.162914 0.000002 -0.000002 18.399050 -3.798980 -4.940568 0.000003 0.000000 0.000000 17.087761 16.475080 -18.833477 -0.273457 -0.810819 22.075489 -18.113794 -9.680388 5.217269 1.647648 -1.926223 -1.350380 -0.000000 -0.000000 0.000002 -11.679704 -17.422955 -2.273007 0.113991 0.647517 24.185513 14.444483 9.846719 -13.159200 -1.450568 0.887159 -2.761163 0.000000 -0.000000 -0.000001 
0.322392 96.328224 -0.868297 -1.136584 -0.251133 1.504758 1.451227 0.623676 2.585248 -0.290686 0.677233 -4.393300 1.251972 -1.326992 13.483264 -6.127434 7.286920 22.816801 0.931955 6.525236 -3.569302 -4.302649 7.028590 -1.656486 0.000076 -0.000021 0.000006 0.033966 -0.046480 -0.107887 0.732108 -3.772516 -10.588911 -0.668655 3.663389 -10.578955 23.230888 -17.669340 2.922600 -82.016884 -35.034763 -30.179770 178.624344 -34.324451 -179.724075 -3.214157 -11.986846 -11.302181 -5.882100 9.861279 0.702590 -10.936858 -0.360574 7.156196 0.000001 8.774812 -0.000002 -16.428417 17.756653 6.143666 -1.844032 2.498503 -2.507276 -10.163588 4.678939 4.621103 -20.975994 -0.000003 0.000001 -21.226250 2.451694 -3.593993 -0.000000 -0.000006 -0.000000 -1.362681 2.240797 -0.746323 -21.334887 0.584908 3.008319 -13.821195 -0.000003 0.000002 -23.887125 -0.249078 -0.839482 -61.567036 2.273097 -1.490179 -0.294025 1.679686 0.833255 -14.218192 0.093215 1.300578 -34.211998 -0.287564 0.967169 -20.033178 0.964535 1.212841 -0.000000 0.000000 0.000000 -3.440384 0.788233 0.501656 -15.928164 -3.167306 2.999703 -6.338814 -0.000001 0.000001 -18.123413 3.648178 -4.905661 -0.000004 0.000000 -0.000002 -24.252472 25.569517 0.953049 91.914352 42.615883 5.314152 -179.898621 38.554775 -179.791382 -10.245441 9.702156 -17.715630 2.243540 -5.255033 -3.180156 14.282878 -0.826594 6.952493 -0.000000 -12.690590 -0.000002 16.212288 -18.069933 3.097683 1.665665 -1.955920 -2.878295 4.727796 -4.170583 4.993917 11.020514 0.000003 0.000000 12.109033 -3.735709 -2.866777 0.000001 -0.000000 0.000001 1.291985 -1.928548 -1.498087 14.800114 0.567468 3.865605 14.242553 -1.341735 -6.660646 19.631939 0.143924 -0.648242 51.028496 -1.010519 -5.959391 0.353029 -1.511149 -0.031940 20.222771 3.684306 2.316628 18.787247 0.000004 -0.000000 10.751610 -0.479868 1.397904 0.000001 0.000002 -0.000001 3.273805 0.305947 -0.580111 21.486792 11.830362 2.266132 8.162918 0.000002 -0.000002 18.399057 -3.798978 -4.940568 0.000004 0.000000 -0.000001 17.102812 16.537157 -18.976469 -0.253310 -0.814547 22.230457 -18.148554 -9.688887 5.343178 1.649817 -1.926450 -1.455133 0.000000 0.000000 0.000002 -11.633905 -17.504227 -2.317155 0.119720 0.658221 24.067404 14.556109 10.050833 -13.107979 -1.453569 0.888287 -2.777827 0.000000 0.000000 -0.000001 
